<svg width="60" height="54" viewBox="0 0 60 54" fill="none" xmlns="http://www.w3.org/2000/svg">
<path d="M29.6788 1.47675L45.434 14.8661L57.2796 17.4913L41.4217 28.6109L44.5827 36.3609L47.0468 36.9929L49.4517 41.5075L46.476 45.4831L46.4903 46.3056L52.4409 52.1007L39.2995 52.1007L39.2995 51.0931L36.6194 45.3515L22.4479 45.1623L17.1073 52.1007L6.94092 52.1007L12.0382 45.0717L12.8745 44.294L9.68846 41.3317L11.6785 36.3446L15.3991 36.2797L19.079 26.6383L3.26209 16.9575L17.1073 12.9946L29.6788 1.47675Z" fill="#DF4F4F"/>
<path d="M29.6788 1.47675L29.9909 36.3203M29.6788 1.47675L45.434 14.8661M29.6788 1.47675L17.1073 12.9946M29.6788 1.47675L19.3221 26.0012M29.6788 1.47675L40.2085 25.6366M19.3221 26.0012L12.4034 17.3042L17.1073 12.9946M19.3221 26.0012L19.079 26.6383M15.3991 36.2797L29.9909 36.3203M15.3991 36.2797L19.079 26.6383M15.3991 36.2797L11.6785 36.3446L9.68846 41.3317M44.5827 36.3609L29.9909 36.3203M44.5827 36.3609L41.4217 28.6109M44.5827 36.3609L47.0468 36.9929L49.4517 41.5075M40.2085 25.6366L47.5805 16.6902L45.434 14.8661M40.2085 25.6366L41.4217 28.6109M45.434 14.8661L57.2796 17.4913L41.4217 28.6109M19.079 26.6383L3.26209 16.9575L17.1073 12.9946M9.68846 41.3317L49.4517 41.5075M9.68846 41.3317L12.8745 44.294M46.476 45.4831L49.4517 41.5075M46.476 45.4831L36.6194 45.3515M46.476 45.4831L46.4903 46.3056M12.8745 44.294L13.6066 45.0443L22.4479 45.1623M12.8745 44.294L12.0382 45.0717M17.1073 52.1007L6.94092 52.1007L12.0382 45.0717M17.1073 52.1007L22.4479 45.1623M17.1073 52.1007L12.0382 45.0717M22.4479 45.1623L36.6194 45.3515M36.6194 45.3515L39.2995 51.0931M46.4903 46.3056L52.4409 52.1007L39.2995 52.1007L39.2995 51.0931M46.4903 46.3056L39.2995 51.0931" stroke="black" stroke-width="2"/>
</svg>
